<svg id="Calque_1" data-name="Calque 1" xmlns="http://www.w3.org/2000/svg" viewBox="0 0 432 432"><defs><style>.cls-1{fill:#333;}.cls-2{fill:#e28aa3;}</style></defs><title>14_100_REDO_February_2017_LoveSVG</title><path class="cls-1" d="M303.8,295.94a75.38,75.38,0,0,0-4.49-15.06c-.24.47-.41.77-.54,1.08-1,2.25-2,4.51-3,6.75a22.09,22.09,0,0,1-2.75,4.69,12.18,12.18,0,0,1-3.07,2.79,6,6,0,0,1-7.66-.71,11.3,11.3,0,0,1-2.91-4.05c-.69-1.63-1.19-3.35-1.75-5-.13-.37-.19-.76-.34-1.37-.16.44-.27.67-.33.92A105.84,105.84,0,0,1,273.36,298a35.73,35.73,0,0,1-1.71,3.79,10.72,10.72,0,0,1-1.67,2.34,4.85,4.85,0,0,1-7.29,0,12.39,12.39,0,0,1-1.91-2.82,23.6,23.6,0,0,1-2.16-7.56,81.14,81.14,0,0,1-.56-10.34c0-1.89,0-3.77-.05-5.66a19.67,19.67,0,0,0-.26-2.76,12.48,12.48,0,0,0-.59-1.85,11,11,0,0,0-1.32.63,12.44,12.44,0,0,0-3,2.92,30.42,30.42,0,0,0-4.31,8.31,85.69,85.69,0,0,0-3.63,14.37c-.16.91-.29,1.83-.46,2.74a4.22,4.22,0,0,1-.35,1.11,1.53,1.53,0,0,1-1.56.9,1.5,1.5,0,0,1-1.43-1.09,5.27,5.27,0,0,1-.25-1.47c-.17-3.81-.31-7.61-.46-11.42a1.48,1.48,0,0,0-.13-.68c-.1.24-.21.47-.29.71-.71,2.05-1.31,4.15-2.15,6.15a22,22,0,0,1-2.33,4,8.48,8.48,0,0,1-2.07,2,5.22,5.22,0,0,1-6.2,0,10,10,0,0,1-2.86-3.13,20.26,20.26,0,0,1-2.53-6.66c-.57-2.86-1-5.75-1.51-8.62a19,19,0,0,0-.46-2c-.35-1.19-.68-1.32-1.75-.63a12.15,12.15,0,0,0-1.83,1.45,18.37,18.37,0,0,0-3.67,5.23,42,42,0,0,0-3.4,10.31c-.26,1.25-.44,2.52-.67,3.79a4.81,4.81,0,0,1-.25.92,1.66,1.66,0,0,1-1.61,1,1.57,1.57,0,0,1-1.49-1.17,16.47,16.47,0,0,1-.44-2.2c-.54-3.77-1.06-7.54-1.59-11.31,0-.06-.06-.1-.17-.27-.09.35-.16.61-.21.86-.86,4.37-1.66,8.75-2.58,13.1a39.73,39.73,0,0,1-2.57,7.79,13.36,13.36,0,0,1-2.49,3.83,3.82,3.82,0,0,1-4.89.22,12.18,12.18,0,0,1-3.12-3.62,27.81,27.81,0,0,1-3.16-9.58,47.15,47.15,0,0,1-.42-9.27,1.25,1.25,0,0,0-.17-.76l-.32.72c-1.12,2.35-2.19,4.72-3.36,7a12.72,12.72,0,0,1-2.91,3.81,6.1,6.1,0,0,1-5.29,1.69,6.47,6.47,0,0,1-3.35-1.79,13.49,13.49,0,0,1-3.2-5.12,30.27,30.27,0,0,1-1.75-9.08c-.1-1.6-.16-3.19-.25-5a7.1,7.1,0,0,0-.66.62,63.14,63.14,0,0,1-6.22,6.75,1.05,1.05,0,0,0-.27,1.16,22.18,22.18,0,0,1-1.13,11.77,13.84,13.84,0,0,1-6.38,7.61,9.38,9.38,0,0,1-8.53.52,7.18,7.18,0,0,1-3.6-3.21,5.26,5.26,0,0,1-.31-4.73,13.45,13.45,0,0,1,2.48-3.84A27.17,27.17,0,0,1,144,296c2.05-1.34,4.12-2.67,6.17-4,.56-.37,1.08-.8,1.69-1.25a12,12,0,0,0-3.32-4.94,5,5,0,0,0-4.47-.78,8.59,8.59,0,0,0-3.66,2.11,23.52,23.52,0,0,0-6.68,9.91c-.23.67-.44,1.35-.71,2a2.05,2.05,0,0,1-1.76,1.51,2,2,0,0,1-2-1.28c-.68-1.48-1.27-3-1.89-4.53-.21-.52-.39-1.05-.64-1.72-.31.31-.56.53-.78.78a53.68,53.68,0,0,1-7.11,6.62,15.24,15.24,0,0,1-1.59,1.07,1.63,1.63,0,1,1-1.76-2.72,49.58,49.58,0,0,0,9.38-8.69,1.68,1.68,0,0,0,.4-1.82,42,42,0,0,1-1.93-13.36,27.16,27.16,0,0,1,2.08-10.41,15.91,15.91,0,0,1,2.78-4.4,10.79,10.79,0,0,1,1.68-1.49,5,5,0,0,1,6.49.35,8.46,8.46,0,0,1,2.75,5.06,18.52,18.52,0,0,1-.56,8.14,43.76,43.76,0,0,1-6.27,13.5c-.85,1.27-1.76,2.51-2.67,3.73a1.19,1.19,0,0,0-.21,1.27,41,41,0,0,0,1.65,4.11c.18-.36.37-.72.53-1.09a26.36,26.36,0,0,1,7.36-9.57,10.7,10.7,0,0,1,5.58-2.48,7.69,7.69,0,0,1,6.82,2.29,30.52,30.52,0,0,1,2.53,3.42,12.26,12.26,0,0,1,.62,1.07,8.76,8.76,0,0,0,.75-.67c1.88-2.13,3.75-4.28,5.63-6.42a14,14,0,0,1,1.39-1.48,2.18,2.18,0,0,1,3.75,1.28,17.93,17.93,0,0,1,.27,2.54c.14,2.42.21,4.84.41,7.25a19.12,19.12,0,0,0,1.69,6.81,13.21,13.21,0,0,0,1.9,2.94c1.4,1.58,3,1.61,4.44.11a13,13,0,0,0,2.17-2.89c1-1.9,2-3.87,2.82-5.86,1.14-2.69,2.13-5.44,3.2-8.15.34-.87.7-1.72,1.09-2.56a5.11,5.11,0,0,1,.75-1.16,1.7,1.7,0,0,1,1.83-.57,1.58,1.58,0,0,1,1.27,1.43,15.9,15.9,0,0,1,0,2.76c-.29,2.8-.73,5.58-.92,8.38a34,34,0,0,0,1.84,14.83,27.58,27.58,0,0,0,2.08,3.95,4.56,4.56,0,0,0,1.2,1.2c.54.41.88.38,1.28-.17a12.67,12.67,0,0,0,1.21-2,34.14,34.14,0,0,0,2.52-7.48c.93-4.38,1.75-8.79,2.59-13.19.51-2.69,1-5.4,1.48-8.09a7.28,7.28,0,0,1,.66-1.79,1.78,1.78,0,0,1,1.74-1,1.71,1.71,0,0,1,1.63,1.19,14.18,14.18,0,0,1,.63,2.8c.28,2.33.47,4.67.71,7,.13,1.27.3,2.54.48,4.06.19-.4.32-.59.39-.8a37.06,37.06,0,0,1,3.43-7.92,17.68,17.68,0,0,1,4.48-5.25,11.42,11.42,0,0,1,2.88-1.59,3.25,3.25,0,0,1,4.12,1.54,9.27,9.27,0,0,1,1.07,2.88c.51,2.51.87,5.05,1.31,7.57a23,23,0,0,0,1.72,6.05,14,14,0,0,0,1.92,3.05c1.38,1.61,2.75,1.63,4.16.06a14.11,14.11,0,0,0,2-3,40.27,40.27,0,0,0,2.6-7.34c.63-2.15,1.23-4.31,1.89-6.46a10.16,10.16,0,0,1,.84-1.95,1.82,1.82,0,0,1,1.88-1,1.75,1.75,0,0,1,1.55,1.3,8.56,8.56,0,0,1,.41,2.19c.07,1.81.06,3.63.08,5.45a.8.8,0,0,0,.2.61c.12-.39.27-.78.38-1.17a51.47,51.47,0,0,1,2.82-7.61,24.69,24.69,0,0,1,3.59-5.79,30.66,30.66,0,0,1,3.06-3,6.15,6.15,0,0,1,1.75-1,3.53,3.53,0,0,1,4.65,1.65,9.21,9.21,0,0,1,1.07,4.32c.09,2.92.13,5.84.15,8.76a62.66,62.66,0,0,0,.47,8.1,21.23,21.23,0,0,0,1.93,6.85,8.21,8.21,0,0,0,1.31,1.93,1.56,1.56,0,0,0,2.52,0,9.61,9.61,0,0,0,1.66-2.59c1-2.58,2.05-5.17,2.82-7.83,1.25-4.3,2.29-8.67,3.43-13a12.53,12.53,0,0,1,.64-1.81,1.79,1.79,0,0,1,3.43.3,21,21,0,0,1,.4,2.74,33.7,33.7,0,0,0,1.34,7.66,25.23,25.23,0,0,0,1.46,3.43,7.87,7.87,0,0,0,1.16,1.66c1.61,1.89,3.14,2,5.08.43a10.66,10.66,0,0,0,2.77-3.49c.89-1.79,1.71-3.6,2.54-5.42.68-1.49,1.3-3,2-4.49a8.22,8.22,0,0,1,1-1.65,2.33,2.33,0,0,1,3.78-.16,7.23,7.23,0,0,1,1.39,2.26c1,2.63,1.93,5.28,2.77,7.95.54,1.7.87,3.45,1.31,5.18.05.23.14.46.25.79a25.41,25.41,0,0,0,4.64-4c.94-1.07,1.83-2.18,2.77-3.25a3.58,3.58,0,0,1,1-.81,1.42,1.42,0,0,1,1.68.25,1.48,1.48,0,0,1,.42,1.74,5.8,5.8,0,0,1-.7,1.07,36,36,0,0,1-8.79,8.35,2.14,2.14,0,0,0-.29.27c.22,1.4.46,2.83.65,4.27a41.58,41.58,0,0,1,.5,7.88,15,15,0,0,1-1.44,5.65l-.15.28c-1.87,3.28-5.22,3.9-8.09,1.45a9.44,9.44,0,0,1-3.13-6.91,13.3,13.3,0,0,1,2.87-9.17,22.86,22.86,0,0,1,4.12-4.16ZM127.93,285.73l.3.06c.8-1.21,1.63-2.4,2.39-3.63a37.54,37.54,0,0,0,5.17-12.67,12,12,0,0,0-.08-5.7,4.88,4.88,0,0,0-1.34-2.27,1.9,1.9,0,0,0-2.78-.15,10,10,0,0,0-1.67,1.77,16.39,16.39,0,0,0-2.78,6.75,34.14,34.14,0,0,0-.15,11.05C127.21,282.55,127.61,284.13,127.93,285.73Zm24.86,8.4c-3.3,2.22-6.41,4.27-9.47,6.39A13.42,13.42,0,0,0,141,302.7a14.83,14.83,0,0,0-1.8,2.5,2.36,2.36,0,0,0,.43,3.19,4.47,4.47,0,0,0,1.18.89,5.72,5.72,0,0,0,4.85.28,9.48,9.48,0,0,0,4.59-3.67C152.55,302.38,153.05,298.46,152.79,294.13Zm151.74,5.53a13.75,13.75,0,0,0-5.11,6.87,9.68,9.68,0,0,0-.36,3.38,6,6,0,0,0,2.77,5,1,1,0,0,0,1.52-.16,4.24,4.24,0,0,0,1-1.36,18.73,18.73,0,0,0,.89-3.05,20.8,20.8,0,0,0-.09-6.05C305,302.8,304.75,301.3,304.53,299.66Z"/><path class="cls-2" d="M248.93,342.56l-5.06-1.83c-.09.23-.22.51-.31.79a93.77,93.77,0,0,1-6.4,15c-.79,1.43-1.67,2.82-2.56,4.19a7.93,7.93,0,0,1-1.4,1.6,2.47,2.47,0,0,1-3.89-.47,10.87,10.87,0,0,1-1.1-2.18,77.7,77.7,0,0,1-3-10.68,82,82,0,0,1-1.47-10.36c0-.23-.07-.46-.14-.86l-7.17,4.11c0,.28.07.59.13.9a25.64,25.64,0,0,1-1.18,13.77,14.12,14.12,0,0,1-3.25,5.09A7.42,7.42,0,0,1,209,363.5a6,6,0,0,1-4.93-.71,11.54,11.54,0,0,1-4.32-4.63,19,19,0,0,1-1.93-6.63,1.49,1.49,0,0,0-.24-.74l-.49.89c-1.27,2.26-2.46,4.58-3.86,6.77A29.43,29.43,0,0,1,190,362.5a8.63,8.63,0,0,1-4.26,2.54,8,8,0,0,1-7.3-1.73,15.18,15.18,0,0,1-3.23-3.82,30.5,30.5,0,0,1-3.43-8l-.38-1.35c-.37.28-.67.49-1,.72a43.48,43.48,0,0,1-13.7,7.72,27.08,27.08,0,0,1-11,1.42,3.14,3.14,0,0,0-.44,0c-1.24,1.84-2.43,3.62-3.64,5.37a9.06,9.06,0,0,1-1.19,1.36,1.59,1.59,0,0,1-1.68.41,1.63,1.63,0,0,1-.63-2.69c1-1.33,2-2.7,3-4.05.2-.29.36-.61.57-1l-1.05-.33a32.55,32.55,0,0,1-12.82-6.79,17.1,17.1,0,0,1-3.76-4.49,9,9,0,0,1-1.24-5.21,5.38,5.38,0,0,1,5.14-5.07,10.76,10.76,0,0,1,6.52,1.66,33,33,0,0,1,3.27,2.55,8.79,8.79,0,0,1,.86,1c0-.54.06-.8.06-1.06a20.38,20.38,0,0,1,.64-5.92,10.33,10.33,0,0,1,2.14-4,4.69,4.69,0,0,1,7.5.13,9.42,9.42,0,0,1,1.91,4.69,27.29,27.29,0,0,1-.75,11.12,52,52,0,0,1-2.75,8c-.14.32-.27.65-.46,1.09a14.9,14.9,0,0,0,3.54-.05,30.18,30.18,0,0,0,9.93-3.11,45.9,45.9,0,0,0,9.6-6.55,1.61,1.61,0,0,0,.6-1.65,46.85,46.85,0,0,1-.41-10.45,28,28,0,0,1,2.1-9.54,11.09,11.09,0,0,1,2.48-3.71c2.53-2.42,5.66-2.13,7.72.7a8.66,8.66,0,0,1,1.53,4.39,17.63,17.63,0,0,1-1,6.94,33.65,33.65,0,0,1-6.42,11.12c-.64.77-1.32,1.5-2,2.23a.93.93,0,0,0-.27.95,28.28,28.28,0,0,0,4,10.19,13.52,13.52,0,0,0,2.31,2.64,4.61,4.61,0,0,0,6.09.21,11.64,11.64,0,0,0,2.57-2.53,54.28,54.28,0,0,0,3.67-5.75c1.56-2.88,2.93-5.86,4.38-8.8a2.33,2.33,0,0,0,.08-.31c-.56-.4-1.13-.76-1.65-1.18a9.72,9.72,0,0,1-3-11.8,8.61,8.61,0,0,1,9-5,12.32,12.32,0,0,1,5.61,2.18,21.3,21.3,0,0,1,7.66,9.53c.15.36.3.72.46,1.08,0,0,.05,0,.13.13a6.13,6.13,0,0,0,.71-.31l5.27-3.05a10.92,10.92,0,0,1,1.52-.78,2.49,2.49,0,0,1,3.54,1.71,17.2,17.2,0,0,1,.55,3.36A76.31,76.31,0,0,0,231,357.71c.15.46.35.91.61,1.58.35-.47.6-.78.82-1.12a52.24,52.24,0,0,0,4.52-8.6c1.33-3.22,2.5-6.51,3.73-9.77a10.52,10.52,0,0,0,.31-1l-.81-.72a19.55,19.55,0,0,1-6.64-14.53,12.83,12.83,0,0,1,.88-5.55,7.41,7.41,0,0,1,1.84-2.72,4.32,4.32,0,0,1,5.5-.46,7.92,7.92,0,0,1,2.93,3.59,19.92,19.92,0,0,1,1.51,6,33.25,33.25,0,0,1-1,11.54c-.12.47-.22,1-.33,1.47a13,13,0,0,0,4.4,1.72c.27-1.08.49-2.08.76-3.08a14.42,14.42,0,0,1,3-6,12.79,12.79,0,0,1,2.3-2.05,6.22,6.22,0,0,1,7.84.88,6,6,0,0,1,.93,7.71,11,11,0,0,1-2,2.33,15.19,15.19,0,0,1-8.87,3.82l-.75.07s-.06,0-.15.07a2.52,2.52,0,0,0-.09.57,24,24,0,0,0,2.55,10.6,14.68,14.68,0,0,0,10.63,7.82,26.21,26.21,0,0,0,12.77-.75,47.41,47.41,0,0,0,15.95-8.23c.28-.21.53-.45.85-.73l-1.4-1.06a26.64,26.64,0,0,1-10.28-16.24,15.18,15.18,0,0,1-.12-6.26,8.14,8.14,0,0,1,2.25-4.17,5.26,5.26,0,0,1,6.92-.74,9.07,9.07,0,0,1,3.87,5.69c.28,1.16.36,2.38.54,3.65.24-.26.47-.51.68-.77a12.32,12.32,0,0,1,3.58-3.17,10.29,10.29,0,0,1,2.66-1,4.09,4.09,0,0,1,4.49,1.95,7.62,7.62,0,0,1,1.14,3.74,15.07,15.07,0,0,1-1.23,6.66,35.17,35.17,0,0,1-6.7,10.23l-.8.89c.43.21.79.39,1.16.55.72.31,1.47.56,2.17.91a1.63,1.63,0,0,1,.84,2.15,1.6,1.6,0,0,1-2.07.82c-1.2-.44-2.37-1-3.55-1.47-.36-.15-.71-.33-1.12-.52l-.89.72A49.3,49.3,0,0,1,276.19,365a27.21,27.21,0,0,1-11.88,0,18,18,0,0,1-13.24-11,27.08,27.08,0,0,1-2.14-10.5ZM143.25,356.33c.13-.18.2-.26.25-.35a43.78,43.78,0,0,0,4-12.44,17.88,17.88,0,0,0-.16-7.32,7.49,7.49,0,0,0-1-2.22,1.41,1.41,0,0,0-2.54-.09,9,9,0,0,0-1.39,2.61,16.14,16.14,0,0,0-.55,6.23c.06,1,.1,1.92.13,2.88a3.38,3.38,0,0,1-.1.95,1.87,1.87,0,0,1-3,1.2,7.62,7.62,0,0,1-1.27-1.14c-.65-.7-1.25-1.46-1.89-2.17a10.31,10.31,0,0,0-4-3,11.94,11.94,0,0,0-3.2-.76,2.28,2.28,0,0,0-2.62,2.71,6.65,6.65,0,0,0,.49,1.95,10.13,10.13,0,0,0,2.29,3.32,25.83,25.83,0,0,0,8,5.46A29.6,29.6,0,0,0,143.25,356.33Zm154.2-6.49a31.55,31.55,0,0,0,7.85-11.47,13.54,13.54,0,0,0,.44-1.54,8.41,8.41,0,0,0,.12-3.8c-.46-1.91-1.27-2.26-3-1.3a9.5,9.5,0,0,0-3.19,2.95c-1.08,1.58-2,3.25-3.05,4.88a14.91,14.91,0,0,1-.8,1.26,1.6,1.6,0,0,1-1.73.53,1.56,1.56,0,0,1-1.18-1.25,3,3,0,0,1-.08-1c.15-1.91.38-3.82.46-5.74a9.19,9.19,0,0,0-.71-4.48,5.94,5.94,0,0,0-2-2.47,2.07,2.07,0,0,0-3,.35,4.35,4.35,0,0,0-1.26,2.42,14.32,14.32,0,0,0-.14,3.39,22.89,22.89,0,0,0,6.18,13.1A25.91,25.91,0,0,0,297.45,349.84Zm-96.39-5.08c0,1-.1,1.9-.12,2.82a20.94,20.94,0,0,0,1.15,7.76,9.09,9.09,0,0,0,3.27,4.38,3,3,0,0,0,4.18-.17,5,5,0,0,0,1.09-1.16,21.76,21.76,0,0,0,1.73-3.18,21.2,21.2,0,0,0,1.18-10.38c-.06-.52-.17-1-.27-1.63C209.25,344.58,205.29,345.45,201.06,344.76ZM212.45,340a17.87,17.87,0,0,0-8.38-10.28,7.18,7.18,0,0,0-1.69-.64,5.63,5.63,0,0,0-7.16,6.77,6.92,6.92,0,0,0,5.51,5.48C204.74,342.37,208.55,341.35,212.45,340Zm-39,3.12a3.25,3.25,0,0,0,.45-.32,29.89,29.89,0,0,0,6-10.47,14.23,14.23,0,0,0,.75-4.93,5.13,5.13,0,0,0-1.29-3.52,1.37,1.37,0,0,0-2.15-.13,6.09,6.09,0,0,0-1.42,1.71,20.57,20.57,0,0,0-1.48,3.64,32.12,32.12,0,0,0-1.09,9.81C173.29,340.25,173.39,341.59,173.47,343.12ZM242,335.2a31.7,31.7,0,0,0,1.07-8.78,17.41,17.41,0,0,0-1.13-6.15,8.18,8.18,0,0,0-1.3-2.18c-1-1.15-1.94-1-2.71.28a7,7,0,0,0-.91,2.47,16.37,16.37,0,0,0,4.44,13.91C241.53,334.87,241.68,335,242,335.2Zm10.63,4.19a5.36,5.36,0,0,0,.63,0,3.39,3.39,0,0,0,.64-.05,12.56,12.56,0,0,0,6.53-3.38,6,6,0,0,0,.88-1.07,2.82,2.82,0,0,0-.71-4,3,3,0,0,0-3.75-.05,8.72,8.72,0,0,0-2.74,3.48A20.1,20.1,0,0,0,252.58,339.39Z"/><path class="cls-1" d="M272.18,159.26a26.45,26.45,0,0,1,5.4,7.51,80.38,80.38,0,0,1,8.74,25.55,65.57,65.57,0,0,1,.78,12.45,86.71,86.71,0,0,1-1.35,13,47.66,47.66,0,0,1-4.19,12.62,43.52,43.52,0,0,1-17.47,18.14A71.83,71.83,0,0,1,248,255.3a118.94,118.94,0,0,1-20.81,4.17,97.28,97.28,0,0,1-18.77.27,91.66,91.66,0,0,1-27.55-6.42,56.74,56.74,0,0,1-16.54-10.24A48.66,48.66,0,0,1,150,219.36,64.36,64.36,0,0,1,147.79,206a69.61,69.61,0,0,1,5.83-32.9,44.22,44.22,0,0,1,9.85-14.37,3.74,3.74,0,0,0,.33-.38l-.66-.92a177.65,177.65,0,0,1-24.35-44.33A88.19,88.19,0,0,1,134,94.3c-.86-6.43-1-12.86.59-19.21A32,32,0,0,1,136.4,70a11.56,11.56,0,0,1,2-3,6.48,6.48,0,0,1,6.82-1.92,11.36,11.36,0,0,1,4,2,40.75,40.75,0,0,1,6.48,6.18,116.18,116.18,0,0,1,12.26,18,158.49,158.49,0,0,1,14.27,34c1.17,4,2.17,8,3.25,12,.08.27.16.54.27.93a62.32,62.32,0,0,1,28.47-8.59,3.17,3.17,0,0,0,0-1.88,46.3,46.3,0,0,0-2.33-7.54,10.71,10.71,0,0,1-.4-1.21,1.59,1.59,0,0,1,2.92-1.21,5.35,5.35,0,0,1,.39.88,53,53,0,0,1,2.65,8.44,3.61,3.61,0,0,0,.19.54c.38-.55.72-1,1-1.48.58-1,1.12-2,1.7-3a3.54,3.54,0,0,1,.71-.92,1.56,1.56,0,0,1,2.52,1.34,2.85,2.85,0,0,1-.36,1.1c-.79,1.39-1.61,2.77-2.43,4.15l-.48.8c.34.06.61.13.87.16a64.29,64.29,0,0,1,18.14,4.2A42.41,42.41,0,0,1,250.06,140a1.69,1.69,0,0,0,.36.18c.1-.36.2-.69.28-1a203.73,203.73,0,0,1,10-31.62A144.46,144.46,0,0,1,277.25,78,53.86,53.86,0,0,1,286,68.2a14.18,14.18,0,0,1,5.3-3.1,6.7,6.7,0,0,1,7.24,2.17,13.83,13.83,0,0,1,2.59,4.63,36.43,36.43,0,0,1,1.93,9.28c.73,8.5-.62,16.76-2.92,24.9a136.81,136.81,0,0,1-11.11,26.78,176.42,176.42,0,0,1-16.47,25.82C272.45,158.84,272.34,159,272.18,159.26Zm-85.6-17.6c.6,3,1.2,5.93,1.78,8.86.23,1.16.47,2.31.62,3.47a1.55,1.55,0,0,1-1.15,1.71,1.58,1.58,0,0,1-1.87-.88,4.3,4.3,0,0,1-.3-1c-1.2-6.25-2.45-12.5-4-18.67a178.4,178.4,0,0,0-11.36-32.4A127.92,127.92,0,0,0,153.73,76a39.52,39.52,0,0,0-6.06-6,9,9,0,0,0-3.17-1.72,3.37,3.37,0,0,0-3.77,1,8.06,8.06,0,0,0-1.37,2,31.73,31.73,0,0,0-1.55,4.42,46.93,46.93,0,0,0-.58,17.83,84,84,0,0,0,4.35,17.59,174,174,0,0,0,23.53,43.43c2.44,3.35,5.26,6.37,8,9.48.84,1,1.69,1.94,2.5,2.92a1.59,1.59,0,0,1,0,2.23,1.63,1.63,0,0,1-2.31,0,7.74,7.74,0,0,1-.89-.92l-5.76-6.6c-.23-.26-.47-.51-.7-.75a1.28,1.28,0,0,0-.24.15l-.62.59a40.93,40.93,0,0,0-8.45,12.63A66.37,66.37,0,0,0,151,204.63a61.33,61.33,0,0,0,2,13.28,45.73,45.73,0,0,0,12.49,21.78,51.13,51.13,0,0,0,13.83,9.36,86.08,86.08,0,0,0,31.47,7.58,92,92,0,0,0,16.75-.51,114.32,114.32,0,0,0,22.09-4.76,61.69,61.69,0,0,0,15.24-7.1,39.48,39.48,0,0,0,15.7-19.72,58.29,58.29,0,0,0,3-14.71,67.93,67.93,0,0,0-.21-15.35,76.85,76.85,0,0,0-9.15-27.06,51.89,51.89,0,0,0-3-4.44,10.83,10.83,0,0,0-1.22-1.23l-5.07,5.82c-.33.38-.64.77-1,1.14a5.3,5.3,0,0,1-.53.53,1.67,1.67,0,0,1-2.32,0,1.65,1.65,0,0,1,0-2.32c1.24-1.46,2.52-2.9,3.77-4.36,1.81-2.11,3.7-4.16,5.4-6.36a174.73,174.73,0,0,0,18-29.12,124.8,124.8,0,0,0,9.29-24.07A76.69,76.69,0,0,0,300,87a42.07,42.07,0,0,0-.45-7.77,25.84,25.84,0,0,0-1.65-6.61,16.19,16.19,0,0,0-1.78-3.14A3.44,3.44,0,0,0,292,68.3a9.64,9.64,0,0,0-3.22,1.84,32.35,32.35,0,0,0-5.19,5.07C281.36,78.1,279.06,81,277,84a149.82,149.82,0,0,0-18.21,38.14,247.59,247.59,0,0,0-7.7,31.29,5.72,5.72,0,0,1-.4,1.43,1.53,1.53,0,0,1-1.78.85,1.59,1.59,0,0,1-1.23-1.55,3.47,3.47,0,0,1,.06-.64q.56-2.88,1.12-5.76l.76-3.76a28.54,28.54,0,0,0-7-4.9,56.62,56.62,0,0,0-31.67-6,57.78,57.78,0,0,0-19.41,5.53A27.59,27.59,0,0,0,186.58,141.66Z"/><path class="cls-2" d="M292.09,93.06a45,45,0,0,1-2,11.8,113.82,113.82,0,0,1-9.4,22.06,100.19,100.19,0,0,1-8.23,13.24,117.2,117.2,0,0,1-10.19,11.52c-.4.4-.83.78-1.27,1.14a5.32,5.32,0,0,1-1.09.67,1.87,1.87,0,0,1-2.79-1.7,9.12,9.12,0,0,1,.3-2.32,145.54,145.54,0,0,1,5.17-16.39c3.64-10,7.41-19.88,12-29.44,1.81-3.75,3.79-7.42,5.79-11.07a36.73,36.73,0,0,1,2.89-4.23,11.82,11.82,0,0,1,2-2c2.28-1.81,4.68-1.2,5.78,1.48a14.39,14.39,0,0,1,.76,2.88A21.66,21.66,0,0,1,292.09,93.06Z"/><path class="cls-2" d="M144.62,93.66a16.15,16.15,0,0,1,.64-5.06A7.61,7.61,0,0,1,146,87a3.2,3.2,0,0,1,4.52-1.21,6.87,6.87,0,0,1,1.68,1.3,19.2,19.2,0,0,1,2.23,2.72c1.5,2.38,3,4.77,4.32,7.25a246,246,0,0,1,12.4,28.23,221.26,221.26,0,0,1,7.58,22.23,38,38,0,0,1,.79,4,1.85,1.85,0,0,1-.9,2,2.07,2.07,0,0,1-2.32-.19,15.91,15.91,0,0,1-2-1.72,95.09,95.09,0,0,1-16.16-20.75,132.63,132.63,0,0,1-10.81-23.55,54.05,54.05,0,0,1-2.58-11.65C144.65,94.88,144.64,94.17,144.62,93.66Z"/><path class="cls-1" d="M204.18,231c-1.17.2-2.38.44-3.61.59a29,29,0,0,1-10.51-.1,27.72,27.72,0,0,1-3.65-1.18,11.73,11.73,0,0,1-7.26-8.38,25.83,25.83,0,0,1-.74-5.81,1.67,1.67,0,0,1,1.63-1.87c.89,0,1.5.71,1.62,1.78a46.46,46.46,0,0,0,.63,4.86,8.51,8.51,0,0,0,5.39,6.42,17.92,17.92,0,0,0,7.07,1.41,39.25,39.25,0,0,0,17.14-3.85,15.35,15.35,0,0,0,2.11-1.24,7.06,7.06,0,0,0,3-4.3,28.46,28.46,0,0,0,.74-6.24,1.75,1.75,0,0,0-.62-1.39,21.82,21.82,0,0,1-4.44-6c-1.64-3.12-.51-5.72,2.9-6.55a22.25,22.25,0,0,1,8.49-.41,6,6,0,0,1,1.42.43,3.87,3.87,0,0,1,2.31,5.24,10.16,10.16,0,0,1-1.45,2.72c-1.27,1.62-2.67,3.15-4,4.69a1.43,1.43,0,0,0-.51,1,23.15,23.15,0,0,0,.57,6,10.39,10.39,0,0,0,5.75,7,22,22,0,0,0,6.09,1.92,66,66,0,0,0,12.86,1,22.79,22.79,0,0,0,5.5-.71,8.31,8.31,0,0,0,5.63-4.68,27.42,27.42,0,0,0,1.7-5.6,4.53,4.53,0,0,1,.23-.82,1.57,1.57,0,0,1,1.67-.89,1.59,1.59,0,0,1,1.32,1.35,3.13,3.13,0,0,1,0,1.06c-.42,1.62-.77,3.27-1.32,4.84-1.72,4.86-5.23,7.56-10.29,8.34A42.36,42.36,0,0,1,242,232c-2.34-.17-4.68-.4-7.1-.6a6.39,6.39,0,0,0-.23.6c-.78,2.67-1.51,5.34-2.36,8a16.61,16.61,0,0,1-1.43,3.09,4.4,4.4,0,0,1-4.06,2.32c-2.32,0-4.63,0-6.94-.12-2.06-.1-4.12-.32-6.17-.51-.46,0-.92-.14-1.37-.22a5.25,5.25,0,0,1-4-2.94,52.89,52.89,0,0,1-3.66-9.32c-.1-.35-.19-.69-.3-1C204.36,231.19,204.29,231.14,204.18,231Zm15.75,10.91c.52.06.9.13,1.29.15,1.32.05,2.64.14,3.95.11,2.47-.07,2.69.31,3.73-2.58s1.73-5.71,2.57-8.58a1.42,1.42,0,0,0,0-.36c-1-.32-2-.59-2.91-1a20.44,20.44,0,0,1-2.8-1.32,18.23,18.23,0,0,1-2.58-1.87c-.75-.66-1.39-1.46-2.17-2.3A150.71,150.71,0,0,0,219.93,241.92ZM217.46,225a15.85,15.85,0,0,1-4.7,3.1c-1.71.75-3.46,1.42-5.25,2.16.28.94.49,1.87.84,2.76.91,2.31,1.85,4.62,2.84,6.9a2.22,2.22,0,0,0,1,1.14,13,13,0,0,0,4.29.68C216.83,236.17,217.14,230.68,217.46,225Z"/><path class="cls-1" d="M167.17,190a12.62,12.62,0,0,1-4.2-4,2,2,0,0,1-.39-.86,1.58,1.58,0,0,1,2.7-1.37c.57.58,1,1.27,1.62,1.85a11.74,11.74,0,0,0,1.63,1.34.85.85,0,0,0,1.22-.23,17.58,17.58,0,0,1,1.52-1.47l-1.87-3.09a5,5,0,0,1-.44-.86,1.58,1.58,0,0,1,.6-1.88,1.5,1.5,0,0,1,2,.17,6.65,6.65,0,0,1,.87,1.21c.51.8,1,1.61,1.55,2.47l1.14-.59a22.78,22.78,0,0,1,15.11-2.26,23.26,23.26,0,0,1,3.35,1.06,2.4,2.4,0,0,1,1,.77,1.36,1.36,0,0,1,.05,1.61,1.5,1.5,0,0,1-1.51.8,3.29,3.29,0,0,1-.92-.24c-5.38-2-10.56-1.31-15.59,1.19a13.69,13.69,0,0,0-4.19,3.09,11.82,11.82,0,0,0-1.28,1.7,10.6,10.6,0,0,1-7.73,5.15,1.69,1.69,0,0,1-2-1.14,1.64,1.64,0,0,1,1.27-2c.57-.18,1.18-.28,1.75-.45A4.9,4.9,0,0,0,167.17,190Z"/><path class="cls-1" d="M257.27,183.26c.46-.7.88-1.32,1.27-1.94.27-.42.49-.88.77-1.28a1.62,1.62,0,1,1,2.78,1.66c-.54,1-1.14,1.89-1.72,2.83-.11.18-.23.35-.39.58.57.6,1.1,1.21,1.7,1.75a.81.81,0,0,0,.74.16,4.68,4.68,0,0,0,1.35-.83c.56-.53,1-1.16,1.56-1.75a7.2,7.2,0,0,1,.64-.71,1.58,1.58,0,0,1,2.14-.12,1.56,1.56,0,0,1,.32,2.12,13.39,13.39,0,0,1-3.67,3.83L264,190c.35.34.62.64.93.9a6.89,6.89,0,0,0,2.81,1.23c.35.09.7.14,1,.26a1.62,1.62,0,0,1,1.16,1.91,1.6,1.6,0,0,1-1.86,1.23,9.77,9.77,0,0,1-5.26-2.16,29.3,29.3,0,0,1-2.61-2.94,17.19,17.19,0,0,0-19.31-6.64,15.5,15.5,0,0,0-1.63.53c-.23.08-.46.19-.7.25a1.62,1.62,0,0,1-2-1,1.49,1.49,0,0,1,.79-2,18.81,18.81,0,0,1,3.62-1.22,22.77,22.77,0,0,1,15.13,2.2Z"/></svg>